<?xml version="1.0" encoding="UTF-8" standalone="no"?> <!-- Created with Vectornator for iOS (http://vectornator.io/) --><!DOCTYPE svg PUBLIC "-//W3C//DTD SVG 1.1//EN" "http://www.w3.org/Graphics/SVG/1.1/DTD/svg11.dtd">
<svg height="100%" style="fill-rule:nonzero;clip-rule:evenodd;stroke-linecap:round;stroke-linejoin:round;" xmlns:xlink="http://www.w3.org/1999/xlink" xmlns="http://www.w3.org/2000/svg" xml:space="preserve" width="100%" xmlns:vectornator="http://vectornator.io" version="1.1" viewBox="0 0 29.1385 61.1918">
<metadata>
<vectornator:setting key="DimensionsVisible" value="1"/>
<vectornator:setting key="PencilOnly" value="0"/>
<vectornator:setting key="SnapToPoints" value="0"/>
<vectornator:setting key="OutlineMode" value="0"/>
<vectornator:setting key="CMYKEnabledKey" value="0"/>
<vectornator:setting key="RulersVisible" value="1"/>
<vectornator:setting key="SnapToEdges" value="0"/>
<vectornator:setting key="GuidesVisible" value="1"/>
<vectornator:setting key="DisplayWhiteBackground" value="0"/>
<vectornator:setting key="doHistoryDisabled" value="0"/>
<vectornator:setting key="SnapToGuides" value="1"/>
<vectornator:setting key="TimeLapseWatermarkDisabled" value="0"/>
<vectornator:setting key="Units" value="Millimeters"/>
<vectornator:setting key="DynamicGuides" value="0"/>
<vectornator:setting key="IsolateActiveLayer" value="0"/>
<vectornator:setting key="SnapToGrid" value="0"/>
</metadata>
<defs/>
<g id="folha" vectornator:layerName="folha">
<g opacity="1">
<g opacity="1">
<path stroke="#ffffff" stroke-width="0.6" d="M3.53147+58.2348C4.34699+47.1337+6.27562+30.4556+10.4219+18.3222C5.14083+32.3261+3.9579+45.5917+3.53147+58.2348L3.53147+58.2348Z" fill="#ffffff" stroke-linecap="round" opacity="1" stroke-linejoin="round"/>
<path stroke="#ffffff" stroke-width="0.6" d="M11.8286+16.0311C9.16712+17.4843+9.66938+24.1689+11.8286+16.0311L11.8286+16.0311Z" fill="#ffffff" stroke-linecap="round" opacity="1" stroke-linejoin="round"/>
<path stroke="#ffffff" stroke-width="0.6" d="M12.9891+17.9909C8.43953+21.2241+6.31508+26.0494+12.9891+17.9909L12.9891+17.9909Z" fill="#ffffff" stroke-linecap="round" opacity="1" stroke-linejoin="round"/>
<path stroke="#ffffff" stroke-width="0.6" d="M9.03208+21.9321C10.9838+20.3672+7.75361+14.7284+9.03208+21.9321L9.03208+21.9321Z" fill="#ffffff" stroke-linecap="round" opacity="1" stroke-linejoin="round"/>
<path stroke="#ffffff" stroke-width="0.6" d="M12.4661+22.3238C6.28769+27.6961+4.4652+32.8371+12.4661+22.3238L12.4661+22.3238Z" fill="#ffffff" stroke-linecap="round" opacity="1" stroke-linejoin="round"/>
<path stroke="#ffffff" stroke-width="0.6" d="M11.9791+25.6209C6.06615+32.1879+5.45006+37.1879+11.9791+25.6209L11.9791+25.6209Z" fill="#ffffff" stroke-linecap="round" opacity="1" stroke-linejoin="round"/>
<path stroke="#ffffff" stroke-width="0.6" d="M10.5893+30.6325C4.77893+37.558+4.41584+42.674+10.5893+30.6325L10.5893+30.6325Z" fill="#ffffff" stroke-linecap="round" opacity="1" stroke-linejoin="round"/>
<path stroke="#ffffff" stroke-width="0.6" d="M9.1525+36.746C4.28048+41.4752+3.56657+47.9992+9.1525+36.746L9.1525+36.746Z" fill="#ffffff" stroke-linecap="round" opacity="1" stroke-linejoin="round"/>
<path stroke="#ffffff" stroke-width="0.6" d="M8.34166+41.3183C3.91671+46.4933+4.18415+52.2674+8.34166+41.3183L8.34166+41.3183Z" fill="#ffffff" stroke-linecap="round" opacity="1" stroke-linejoin="round"/>
<path stroke="#ffffff" stroke-width="0.6" d="M4.04663+51.7772C7.48812+49.4841+8.74418+43.6675+4.04663+51.7772L4.04663+51.7772Z" fill="#ffffff" stroke-linecap="round" opacity="1" stroke-linejoin="round"/>
<path stroke="#ffffff" stroke-width="0.6" d="M3.69626+56.2264C6.61293+52.7761+5.68105+46.9287+3.69626+56.2264L3.69626+56.2264Z" fill="#ffffff" stroke-linecap="round" opacity="1" stroke-linejoin="round"/>
<path stroke="#ffffff" stroke-width="0.6" d="M6.26889+21.2799C5.40374+26.7423+9.03927+31.2314+6.26889+21.2799L6.26889+21.2799Z" fill="#ffffff" stroke-linecap="round" opacity="1" stroke-linejoin="round"/>
<path stroke="#ffffff" stroke-width="0.6" d="M5.6611+26.9137C4.94498+31.5301+8.93983+35.8971+5.6611+26.9137L5.6611+26.9137Z" fill="#ffffff" stroke-linecap="round" opacity="1" stroke-linejoin="round"/>
<path stroke="#ffffff" stroke-width="0.6" d="M3.13704+31.0376C3.84702+36.5151+8.71037+40.3983+3.13704+31.0376L3.13704+31.0376Z" fill="#ffffff" stroke-linecap="round" opacity="1" stroke-linejoin="round"/>
<path stroke="#ffffff" stroke-width="0.6" d="M5.00067+40.0637C4.69549+36.5073-1.11902+32.4891+5.00067+40.0637L5.00067+40.0637Z" fill="#ffffff" stroke-linecap="round" opacity="1" stroke-linejoin="round"/>
<path stroke="#ffffff" stroke-width="0.6" d="M4.60203+43.9426C3.66525+40.3305-0.950168+37.3649+4.60203+43.9426L4.60203+43.9426Z" fill="#ffffff" stroke-linecap="round" opacity="1" stroke-linejoin="round"/>
<path stroke="#ffffff" stroke-width="0.6" d="M4.62238+48.4603C2.22095+42.0255-2.1612+38.9744+4.62238+48.4603L4.62238+48.4603Z" fill="#ffffff" stroke-linecap="round" opacity="1" stroke-linejoin="round"/>
<path stroke="#ffffff" stroke-width="0.6" d="M3.75652+52.1191C4.00696+49.0185-0.788998+45.1859+3.75652+52.1191L3.75652+52.1191Z" fill="#ffffff" stroke-linecap="round" opacity="1" stroke-linejoin="round"/>
<path stroke="#ffffff" stroke-width="0.6" d="M3.3835+55.8476C4.13792+54.0879-1.69528+50.2939+3.3835+55.8476L3.3835+55.8476Z" fill="#ffffff" stroke-linecap="round" opacity="1" stroke-linejoin="round"/>
</g>
<g opacity="1">
<path stroke="#ffffff" stroke-width="0.6" d="M1.59181+60.3743C11.3556+44.1292+22.6628+22.3342+23.9574+5.22792C21.1012+23.9815+11.2252+42.4192+1.59181+60.3743L1.59181+60.3743Z" fill="#ffffff" stroke-linecap="round" opacity="1" stroke-linejoin="round"/>
<path stroke="#ffffff" stroke-width="0.6" d="M25.5157+1C22.3046+4.29972+24.8697+11.3948+25.5157+1L25.5157+1Z" fill="#ffffff" stroke-linecap="round" opacity="1" stroke-linejoin="round"/>
<path stroke="#ffffff" stroke-width="0.6" d="M27.9601+2.11978C22.8986+5.21337+21.7996+11.5451+27.9601+2.11978L27.9601+2.11978Z" fill="#ffffff" stroke-linecap="round" opacity="1" stroke-linejoin="round"/>
<path stroke="#ffffff" stroke-width="0.6" d="M22.2322+3.32985C19.8128+6.06036+25.4139+13.3955+22.2322+3.32985L22.2322+3.32985Z" fill="#ffffff" stroke-linecap="round" opacity="1" stroke-linejoin="round"/>
<path stroke="#ffffff" stroke-width="0.6" d="M27.5436+8.93652C20.22+14.0718+18.293+19.4773+27.5436+8.93652L27.5436+8.93652Z" fill="#ffffff" stroke-linecap="round" opacity="1" stroke-linejoin="round"/>
<path stroke="#ffffff" stroke-width="0.6" d="M21.3462+15.6811C22.988+9.24613+16.9618+1.87628+21.3462+15.6811L21.3462+15.6811Z" fill="#ffffff" stroke-linecap="round" opacity="1" stroke-linejoin="round"/>
<path stroke="#ffffff" stroke-width="0.6" d="M20.0205+22.7476C28.5071+17.6913+30.5754+12.1249+20.0205+22.7476L20.0205+22.7476Z" fill="#ffffff" stroke-linecap="round" opacity="1" stroke-linejoin="round"/>
<path stroke="#ffffff" stroke-width="0.6" d="M19.8702+23.1824C20.4797+15.618+15.1365+9.83081+19.8702+23.1824L19.8702+23.1824Z" fill="#ffffff" stroke-linecap="round" opacity="1" stroke-linejoin="round"/>
<path stroke="#ffffff" stroke-width="0.6" d="M23.6184+26.7243C16.4974+31.018+12.7761+36.9923+23.6184+26.7243L23.6184+26.7243Z" fill="#ffffff" stroke-linecap="round" opacity="1" stroke-linejoin="round"/>
<path stroke="#ffffff" stroke-width="0.6" d="M16.3851+32.4943C18.138+32.8148+15.4001+29.4683+16.592+28.7383C19.5809+17.58+14.3883+29.3146+16.3851+32.4943L16.3851+32.4943Z" fill="#ffffff" stroke-linecap="round" opacity="1" stroke-linejoin="round"/>
<path stroke="#ffffff" stroke-width="0.6" d="M19.5601+34.9346C11.2052+40.3708+8.29033+46.3717+19.5601+34.9346L19.5601+34.9346Z" fill="#ffffff" stroke-linecap="round" opacity="1" stroke-linejoin="round"/>
<path stroke="#ffffff" stroke-width="0.6" d="M11.9359+39.7488C13.3995+29.1478+8.3749+22.3336+11.9359+39.7488L11.9359+39.7488Z" fill="#ffffff" stroke-linecap="round" opacity="1" stroke-linejoin="round"/>
<path stroke="#ffffff" stroke-width="0.6" d="M14.7617+42.3191C10.4002+43.9882+7.3734+48.4327+14.7617+42.3191L14.7617+42.3191Z" fill="#ffffff" stroke-linecap="round" opacity="1" stroke-linejoin="round"/>
<path stroke="#ffffff" stroke-width="0.6" d="M9.19443+45.8184C12.2428+42.6821+8.33137+35.1541+9.19443+45.8184L9.19443+45.8184Z" fill="#ffffff" stroke-linecap="round" opacity="1" stroke-linejoin="round"/>
<path stroke="#ffffff" stroke-width="0.6" d="M10.7121+50.0622C9.57968+49.8641+4.76023+52.0184+10.7121+50.0622L10.7121+50.0622Z" fill="#ffffff" stroke-linecap="round" opacity="1" stroke-linejoin="round"/>
<path stroke="#ffffff" stroke-width="0.6" d="M7.0644+51.021C8.95329+49.9542+4.59055+44.7737+7.0644+51.021L7.0644+51.021Z" fill="#ffffff" stroke-linecap="round" opacity="1" stroke-linejoin="round"/>
<path stroke="#ffffff" stroke-width="0.6" d="M8.55443+53.9914C6.53884+54.1676+0.966652+57.0066+8.55443+53.9914L8.55443+53.9914Z" fill="#ffffff" stroke-linecap="round" opacity="1" stroke-linejoin="round"/>
<path stroke="#ffffff" stroke-width="0.6" d="M24.4359+23.1977C16.429+29.2043+14.5732+34.6973+24.4359+23.1977L24.4359+23.1977Z" fill="#ffffff" stroke-linecap="round" opacity="1" stroke-linejoin="round"/>
<path stroke="#ffffff" stroke-width="0.6" d="M21.4449+31.5592C13.4446+36.1809+9.70293+40.757+21.4449+31.5592L21.4449+31.5592Z" fill="#ffffff" stroke-linecap="round" opacity="1" stroke-linejoin="round"/>
<path stroke="#ffffff" stroke-width="0.6" d="M14.6182+34.0305C16.8487+30.8688+9.75789+22.8228+14.6182+34.0305L14.6182+34.0305Z" fill="#ffffff" stroke-linecap="round" opacity="1" stroke-linejoin="round"/>
</g>
</g>
</g>
</svg>
